<mxfile host="app.diagrams.net" modified="2023-05-18T08:43:13.565Z" agent="Mozilla/5.0 (Macintosh; Intel Mac OS X 10_15_7) AppleWebKit/537.36 (KHTML, like Gecko) Chrome/113.0.0.0 Safari/537.36" etag="ALnrWmzgjTadtGdvB-GT" version="21.1.7" type="github">
  <diagram name="第 1 页" id="iLSD4g7jfylWAUZasWQd">
    <mxGraphModel dx="1065" dy="601" grid="0" gridSize="10" guides="1" tooltips="1" connect="1" arrows="1" fold="1" page="1" pageScale="1" pageWidth="1700" pageHeight="1100" math="0" shadow="0">
      <root>
        <mxCell id="0" />
        <mxCell id="1" parent="0" />
        <mxCell id="M5DSS7KICJE9WgMqZ03X-1" value="JobServer(AE报表使用)" style="rounded=1;whiteSpace=wrap;html=1;" vertex="1" parent="1">
          <mxGeometry x="688" y="204" width="190" height="60" as="geometry" />
        </mxCell>
        <mxCell id="M5DSS7KICJE9WgMqZ03X-3" value="JobServer(API使用)" style="rounded=1;whiteSpace=wrap;html=1;" vertex="1" parent="1">
          <mxGeometry x="688" y="392" width="190" height="60" as="geometry" />
        </mxCell>
        <mxCell id="M5DSS7KICJE9WgMqZ03X-4" value="carbonData库" style="rounded=0;whiteSpace=wrap;html=1;" vertex="1" parent="1">
          <mxGeometry x="977" y="297" width="120" height="60" as="geometry" />
        </mxCell>
        <mxCell id="M5DSS7KICJE9WgMqZ03X-5" value="reportService(报表服务)" style="rounded=1;whiteSpace=wrap;html=1;" vertex="1" parent="1">
          <mxGeometry x="435" y="204" width="170" height="60" as="geometry" />
        </mxCell>
        <mxCell id="M5DSS7KICJE9WgMqZ03X-6" value="dataService(api查询服务)" style="rounded=1;whiteSpace=wrap;html=1;" vertex="1" parent="1">
          <mxGeometry x="276" y="392" width="255" height="60" as="geometry" />
        </mxCell>
        <mxCell id="M5DSS7KICJE9WgMqZ03X-7" value="SSO" style="rounded=1;whiteSpace=wrap;html=1;" vertex="1" parent="1">
          <mxGeometry x="243" y="204" width="120" height="60" as="geometry" />
        </mxCell>
        <mxCell id="M5DSS7KICJE9WgMqZ03X-9" value="AE报表" style="rounded=1;whiteSpace=wrap;html=1;" vertex="1" parent="1">
          <mxGeometry x="53.5" y="203" width="118.5" height="64" as="geometry" />
        </mxCell>
        <mxCell id="M5DSS7KICJE9WgMqZ03X-11" value="" style="endArrow=classic;html=1;rounded=0;entryX=0;entryY=0.5;entryDx=0;entryDy=0;" edge="1" parent="1" target="M5DSS7KICJE9WgMqZ03X-7">
          <mxGeometry width="50" height="50" relative="1" as="geometry">
            <mxPoint x="174" y="234" as="sourcePoint" />
            <mxPoint x="224" y="184" as="targetPoint" />
          </mxGeometry>
        </mxCell>
        <mxCell id="M5DSS7KICJE9WgMqZ03X-12" value="" style="endArrow=classic;html=1;rounded=0;entryX=0;entryY=0.5;entryDx=0;entryDy=0;" edge="1" parent="1">
          <mxGeometry width="50" height="50" relative="1" as="geometry">
            <mxPoint x="363" y="233.29" as="sourcePoint" />
            <mxPoint x="432" y="233.29" as="targetPoint" />
          </mxGeometry>
        </mxCell>
        <mxCell id="M5DSS7KICJE9WgMqZ03X-13" value="" style="endArrow=classic;html=1;rounded=0;entryX=0;entryY=0.5;entryDx=0;entryDy=0;" edge="1" parent="1">
          <mxGeometry width="50" height="50" relative="1" as="geometry">
            <mxPoint x="612" y="233.29" as="sourcePoint" />
            <mxPoint x="681" y="233.29" as="targetPoint" />
          </mxGeometry>
        </mxCell>
        <mxCell id="M5DSS7KICJE9WgMqZ03X-14" value="api调用" style="rounded=1;whiteSpace=wrap;html=1;" vertex="1" parent="1">
          <mxGeometry x="53.5" y="389" width="118.5" height="66" as="geometry" />
        </mxCell>
        <mxCell id="M5DSS7KICJE9WgMqZ03X-15" value="" style="endArrow=classic;html=1;rounded=0;entryX=0;entryY=0.5;entryDx=0;entryDy=0;" edge="1" parent="1" target="M5DSS7KICJE9WgMqZ03X-6">
          <mxGeometry width="50" height="50" relative="1" as="geometry">
            <mxPoint x="170.5" y="421.52" as="sourcePoint" />
            <mxPoint x="240" y="422" as="targetPoint" />
          </mxGeometry>
        </mxCell>
        <mxCell id="M5DSS7KICJE9WgMqZ03X-16" value="" style="endArrow=classic;html=1;rounded=0;entryX=0;entryY=0.5;entryDx=0;entryDy=0;" edge="1" parent="1" target="M5DSS7KICJE9WgMqZ03X-3">
          <mxGeometry width="50" height="50" relative="1" as="geometry">
            <mxPoint x="532" y="422" as="sourcePoint" />
            <mxPoint x="579" y="421.52" as="targetPoint" />
          </mxGeometry>
        </mxCell>
        <mxCell id="M5DSS7KICJE9WgMqZ03X-17" value="" style="endArrow=classic;html=1;rounded=0;entryX=0;entryY=0.25;entryDx=0;entryDy=0;" edge="1" parent="1" target="M5DSS7KICJE9WgMqZ03X-4">
          <mxGeometry width="50" height="50" relative="1" as="geometry">
            <mxPoint x="882" y="240" as="sourcePoint" />
            <mxPoint x="932" y="190" as="targetPoint" />
          </mxGeometry>
        </mxCell>
        <mxCell id="M5DSS7KICJE9WgMqZ03X-18" value="" style="endArrow=classic;html=1;rounded=0;entryX=0;entryY=0.75;entryDx=0;entryDy=0;" edge="1" parent="1" target="M5DSS7KICJE9WgMqZ03X-4">
          <mxGeometry width="50" height="50" relative="1" as="geometry">
            <mxPoint x="878" y="423" as="sourcePoint" />
            <mxPoint x="947" y="423" as="targetPoint" />
          </mxGeometry>
        </mxCell>
      </root>
    </mxGraphModel>
  </diagram>
</mxfile>
